Coordinates
version=1
nRows=12
nColumns=24
inDegrees=yes

Units are S.I. units (second, meters, Newtons, ...)
Angles are in degrees.

endheader
time	pelvis_tilt	pelvis_list	pelvis_rotation	pelvis_tx	pelvis_ty	pelvis_tz	hip_flexion_r	hip_adduction_r	hip_rotation_r	knee_angle_r	ankle_angle_r	subtalar_angle_r	mtp_angle_r	hip_flexion_l	hip_adduction_l	hip_rotation_l	knee_angle_l	ankle_angle_l	subtalar_angle_l	mtp_angle_l	lumbar_extension	lumbar_bending	lumbar_rotation
      3.54000000	     -4.97149753	     -3.28786064	     -4.91507142	     -1.02256990	     -0.03920168	     -0.13508745	     -7.54377841	      7.59306512	      7.78189138	    -27.45960517	      5.71255926	     15.38836592	     18.95494011	     37.31324980	     -2.11947535	    -13.35155194	    -18.87721872	      6.83418535	     10.80416215	    -15.23232475	      4.94662230	      3.47428045	      6.31621403
      3.54500000	     -5.11968407	     -2.92898210	     -4.93196895	     -1.01482473	     -0.03972279	     -0.13563310	     -7.36390092	      7.01243751	      7.34621042	    -28.31625395	      4.90566017	     16.33465201	     19.45731944	     37.29013088	     -1.75093187	    -13.69218995	    -19.39690313	      6.31018467	     10.25383406	    -15.30559670	      5.32983146	      3.05435082	      6.19731930
      3.55000000	     -5.21135620	     -2.54940138	     -4.87058527	     -1.00712432	     -0.04014919	     -0.13649218	     -7.19580025	      6.34412303	      6.69535261	    -29.16751667	      3.93938152	     17.43936439	     20.50657751	     37.19224886	     -1.23488209	    -13.69738147	    -19.82520663	      5.57506686	      9.25805148	    -15.33149650	      5.63728905	      2.62685491	      5.96873898
      3.55500000	     -5.26289763	     -2.12121358	     -4.71484248	     -0.99928577	     -0.04036417	     -0.13737911	     -7.09767965	      5.62240282	      5.96504923	    -29.85129790	      2.44740763	     18.14572966	     22.40731396	     37.00297435	     -0.59658785	    -13.50363074	    -20.13288106	      4.62709427	      8.23030557	    -15.01945339	      5.92926822	      2.11932471	      5.70939014
      3.56000000	     -5.42810980	     -1.64141831	     -4.69171978	     -0.99157222	     -0.04067098	     -0.13813992	     -6.74071300	      4.81847215	      5.34924816	    -30.81778943	      1.27228949	     19.41584443	     23.55479133	     37.00088435	     -0.03611968	    -13.64614339	    -20.58896324	      3.89025498	      7.48694911	    -14.97533785	      6.31875070	      1.58487535	      5.52516179
      3.56500000	     -5.50808354	     -1.13670326	     -4.50183425	     -0.98374821	     -0.04074191	     -0.13906512	     -6.52026386	      3.98302727	      4.56206653	    -31.55071023	     -0.58482101	     20.11021551	     25.82805124	     36.85579508	      0.71783766	    -13.29454176	    -20.91073311	      2.93268272	      6.47241879	    -14.79308451	      6.63285749	      0.98661013	      5.23797415
      3.57000000	     -5.67626137	     -0.60697395	     -4.38592534	     -0.97599245	     -0.04088534	     -0.13991540	     -6.10294738	      3.09865079	      3.84677826	    -32.46644782	     -2.34802081	     21.11861700	     27.68323789	     36.85190719	      1.42536666	    -13.09103193	    -21.35293654	      2.18014600	      5.66005543	    -14.83217998	      7.02941288	      0.38324628	      5.01642585
      3.57500000	     -5.83899395	     -0.06703941	     -4.25290369	     -0.96826445	     -0.04098039	     -0.14078571	     -5.64776601	      2.19263189	      3.14019739	    -33.40829800	     -4.31191506	     22.06259099	     29.58067420	     36.85063881	      2.16645590	    -12.79345545	    -21.83248529	      1.55273541	      4.89249898	    -15.11648224	      7.41249942	     -0.23151884	      4.79648576
      3.58000000	     -6.04411369	      0.46676853	     -4.14808148	     -0.96070664	     -0.04112788	     -0.14167432	     -5.04388476	      1.27240930	      2.48151765	    -34.51275140	     -6.26963726	     23.21799118	     31.06316523	     36.92907738	      2.88445725	    -12.49472541	    -22.38110366	      1.03225617	      4.18400141	    -15.53641147	      7.80275332	     -0.81734585	      4.65045255
      3.58500000	     -6.19756145	      1.02062173	     -3.95570561	     -0.95292633	     -0.04114082	     -0.14253962	     -4.55177351	      0.35782284	      1.82912051	    -35.40620649	     -8.85515536	     23.73066048	     33.39875861	     36.90079509	      3.68403476	    -12.07369845	    -22.89952367	      0.75949094	      3.59753110	    -16.33253807	      8.18106582	     -1.47053065	      4.37006526
      3.59000000	     -6.41042086	      1.56556335	     -3.78318657	     -0.94534088	     -0.04126582	     -0.14345383	     -3.88545251	     -0.55908932	      1.23937684	    -36.51082150	    -11.31196878	     24.48458138	     34.94372114	     36.95268688	      4.46131438	    -11.66846838	    -23.44016726	      0.57494238	      3.04068734	    -17.19107394	      8.58492689	     -2.08821442	      4.16203200
      3.59500000	     -6.62267910	      2.11695017	     -3.59849309	     -0.93782982	     -0.04140414	     -0.14437954	     -3.16810543	     -1.47525464	      0.72350909	    -37.68015920	    -13.86973030	     25.17037869	     36.22057541	     36.98404410	      5.24548188	    -11.29261697	    -23.95197226	      0.49659084	      2.56252287	    -18.04991463	      8.97034011	     -2.71275963	      3.96271918
